<svg width="24" height="24" viewBox="0 0 24 24" fill="none" xmlns="http://www.w3.org/2000/svg">
<circle cx="12" cy="12" r="12" fill="#F2F4F5"/>
<path d="M17.3334 18V16.6667C17.3334 15.9594 17.0525 15.2811 16.5524 14.781C16.0523 14.281 15.374 14 14.6667 14H9.33341C8.62617 14 7.94789 14.281 7.4478 14.781C6.9477 15.2811 6.66675 15.9594 6.66675 16.6667V18" stroke="#655BE0" stroke-linecap="round" stroke-linejoin="round"/>
<path d="M11.9999 11.3333C13.4727 11.3333 14.6666 10.1394 14.6666 8.66667C14.6666 7.19391 13.4727 6 11.9999 6C10.5272 6 9.33325 7.19391 9.33325 8.66667C9.33325 10.1394 10.5272 11.3333 11.9999 11.3333Z" stroke="#655BE0" stroke-linecap="round" stroke-linejoin="round"/>
</svg>
